<?xml version="1.0" encoding="UTF-8"?>
<svg id="shop_paladin" data-name="shop paladin" xmlns="http://www.w3.org/2000/svg" viewBox="0 0 128 128">
  <defs>
    <style>
      .cls-1 {
        fill: #e8c21f;
      }
    </style>
  </defs>
  <polygon class="cls-1" points="120.75 60.56 109.63 60.56 60.18 11.11 65.73 5.57 120.75 60.56"/>
  <polygon class="cls-1" points="65.73 122.43 60.15 116.89 109.63 67.4 120.75 67.4 65.73 122.43"/>
  <polygon class="cls-1" points="63.38 106.62 56.61 113.38 7.25 64.02 56.64 14.62 63.41 21.38 20.77 64.02 25.11 68.35 63.38 106.62"/>
  <path class="cls-1" d="M79.79,50.34c-6.52,0-11.93,4.52-13.31,10.57h-5.9c-.61-7.56-3.5-14.45-7.99-20.04l15.15-15.15,35.19,35.19h-9.87c-1.38-6.06-6.79-10.57-13.28-10.57Z"/>
  <path class="cls-1" d="M67.71,102.28l-15.12-15.12c4.52-5.59,7.41-12.51,8.02-20.1h5.87c1.38,6.09,6.79,10.6,13.31,10.6s11.9-4.52,13.28-10.6h9.87l-35.23,35.23Z"/>
  <circle class="cls-1" cx="44.82" cy="64" r="9.44"/>
  <circle class="cls-1" cx="79.62" cy="64" r="7.23"/>
</svg>